<?xml version="1.0" encoding="UTF-8"?>
<svg version="1.1" xmlns="http://www.w3.org/2000/svg" width="400" height="400">
<path d="M0 0 C132 0 264 0 400 0 C400 132 400 264 400 400 C268 400 136 400 0 400 C0 268 0 136 0 0 Z " fill="#2F906B" transform="translate(0,0)"/>
<path d="M0 0 C9.80699733 -0.16381877 19.61365741 -0.28737976 29.42175579 -0.3626852 C33.97852868 -0.39886975 38.53435049 -0.44776157 43.09057617 -0.52807617 C82.42001565 -1.20294975 82.42001565 -1.20294975 99 7 C99.75751556 7.37126007 100.51503113 7.74252014 101.29550171 8.12503052 C103.20331701 9.07071764 105.10258953 10.03360625 107 11 C107 11.66 107 12.32 107 13 C107.56589844 13.26039062 108.13179687 13.52078125 108.71484375 13.7890625 C120.31006914 19.93354091 131.72829831 32.00097749 137 44 C137.42796875 44.95132813 137.8559375 45.90265625 138.296875 46.8828125 C146.9601405 67.62368931 147.29040434 89.50436058 139.1015625 110.5703125 C137.41102734 114.29908153 135.31167227 117.63156327 133 121 C132.62488281 121.60199219 132.24976563 122.20398438 131.86328125 122.82421875 C130.96669627 124.25408848 129.99063574 125.63360588 129 127 C128.34 127 127.68 127 127 127 C126.7525 127.7425 126.505 128.485 126.25 129.25 C124.89534961 132.23023087 123.4898459 133.89919252 121 136 C120.34 136 119.68 136 119 136 C118.6596875 136.9590625 118.6596875 136.9590625 118.3125 137.9375 C117.879375 138.618125 117.44625 139.29875 117 140 C115.7625 140.2165625 115.7625 140.2165625 114.5 140.4375 C113.675 140.623125 112.85 140.80875 112 141 C111.731875 141.7425 111.46375 142.485 111.1875 143.25 C109.10621605 148.06981546 104.76525557 149.87336158 100.10644531 151.77148438 C89.02842454 156.02948584 78.53872817 159.32223082 66.58056641 159.23950195 C65.23983063 159.24252319 65.23983063 159.24252319 63.87200928 159.24560547 C61.94870944 159.24912724 60.02539797 159.24841346 58.10210037 159.24382973 C55.05917345 159.23820287 52.01662283 159.24744725 48.97372437 159.2610321 C40.32865534 159.29804082 31.68372041 159.31664489 23.03857422 159.30541992 C17.73714365 159.29958167 12.43625059 159.31775483 7.13492966 159.35130882 C5.11667762 159.35927468 3.09836719 159.35796985 1.08012772 159.34728432 C-1.73282684 159.33301751 -4.54407433 159.34915992 -7.35693359 159.37231445 C-8.19227631 159.36054672 -9.02761902 159.34877899 -9.88827515 159.33665466 C-12.46636143 159.32167886 -12.46636143 159.32167886 -16 160 C-18.05311821 162.23165387 -18.05311821 162.23165387 -19 165 C-19.556875 166.093125 -20.11375 167.18625 -20.6875 168.3125 C-21.120625 169.199375 -21.55375 170.08625 -22 171 C-22.66 171 -23.32 171 -24 171 C-24.0825 171.825 -24.165 172.65 -24.25 173.5 C-25.17034567 177.79494647 -26.93969652 181.15313966 -29 185 C-29.73507673 186.4136091 -30.46441483 187.83021963 -31.1875 189.25 C-31.51105469 189.87390625 -31.83460938 190.4978125 -32.16796875 191.140625 C-33.03238 193.07236094 -33.54797553 194.93621151 -34 197 C-34.66 197 -35.32 197 -36 197 C-36.26554687 197.85851562 -36.53109375 198.71703125 -36.8046875 199.6015625 C-38.01023801 203.02910808 -39.47244386 206.14173798 -41.125 209.375 C-41.66382813 210.43460938 -42.20265625 211.49421875 -42.7578125 212.5859375 C-43.16773438 213.38257813 -43.57765625 214.17921875 -44 215 C-44.66 215 -45.32 215 -46 215 C-46.185625 216.03125 -46.37125 217.0625 -46.5625 218.125 C-48.20476803 224.8643814 -51.8270889 230.88920825 -55 237 C-62.59 237 -70.18 237 -78 237 C-77.15276563 232.76382814 -76.25603442 230.52576583 -74.1015625 226.9453125 C-72.93503089 224.88526731 -71.99485082 222.80048524 -71.0625 220.625 C-68.7254898 215.23612943 -65.87119205 210.18500774 -62.8984375 205.125 C-60.95582049 201.80327321 -59.34285124 198.47196097 -57.84765625 194.93115234 C-56.38421337 191.597099 -54.7140823 188.36881696 -53.0625 185.125 C-50.57360813 180.19674645 -48.18057718 175.26198947 -45.984375 170.1953125 C-42.51570332 162.45962407 -38.50671013 154.97903147 -34.39453125 147.5703125 C-32.86185307 144.74537625 -31.43168098 141.87721614 -30 139 C-28.74513794 138.99635437 -27.49027588 138.99270874 -26.1973877 138.98895264 C-14.31157431 138.95184517 -2.42601624 138.89390186 9.45960236 138.81609726 C15.56861877 138.77676201 21.67749403 138.7445054 27.78662109 138.72900391 C33.693674 138.71374509 39.60033849 138.67913741 45.50721741 138.63169098 C47.74915674 138.61697177 49.99115155 138.60896449 52.23313904 138.60811615 C65.10073819 138.59835978 76.68302012 137.96293571 89 134 C89 133.34 89 132.68 89 132 C89.53367187 131.731875 90.06734375 131.46375 90.6171875 131.1875 C99.53360779 126.49789487 107.63778921 121.29260871 112 112 C113.03853564 110.16489121 114.08045809 108.33169669 115.125 106.5 C117.38661519 102.35941663 118.97844195 98.59701122 120 94 C120.66 94 121.32 94 122 94 C122 84.43 122 74.86 122 65 C121.34 65 120.68 65 120 65 C119.79697266 64.10861328 119.79697266 64.10861328 119.58984375 63.19921875 C114.72945046 44.48524937 100.79654879 33.79629029 84.88671875 24.41015625 C79.39627802 21.7280871 74.22517282 20.75115362 68.14672852 20.68115234 C67.50197067 20.67110672 66.85721283 20.6610611 66.19291687 20.65071106 C64.08825472 20.62012852 61.98371823 20.60291454 59.87890625 20.5859375 C58.40916379 20.56720569 56.93943185 20.5476308 55.4697113 20.5272522 C51.6212894 20.47613737 47.77283272 20.43640188 43.92425537 20.39910889 C39.98913107 20.35893899 36.05414889 20.3079062 32.11914062 20.2578125 C24.41285827 20.16129807 16.70650657 20.07681587 9 20 C8.03889775 18.23967327 7.07799951 16.47923516 6.1171875 14.71875 C5.58206543 13.73841797 5.04694336 12.75808594 4.49560547 11.74804688 C0 3.4877571 0 3.4877571 0 0 Z " fill="#F9FBFA" transform="translate(199,79)"/>
<path d="M0 0 C2.6888177 3.3527233 4.74060844 6.96703789 6.75 10.75 C7.10143066 11.4090332 7.45286133 12.06806641 7.81494141 12.74707031 C10.22008085 17.33190125 12.35794439 21.9836086 14.375 26.75 C17.22928811 33.47696917 20.49560872 39.90554367 23.94335938 46.34594727 C29.06583876 55.93321213 33.88539041 65.67126012 38.71020508 75.41088867 C39.53229394 77.0611352 40.36206928 78.70759061 41.2019043 80.34887695 C42.81815719 83.51180774 44.10456408 86.37520052 45.0625 89.8125 C45.70376852 92.93720069 45.70376852 92.93720069 47.453125 94.4453125 C49.23100487 96.23217156 49.85255616 97.69903463 50.6875 100.0625 C51.06455078 101.10083984 51.06455078 101.10083984 51.44921875 102.16015625 C52 104 52 104 52 106 C52.66 106 53.32 106 54 106 C58 112.375 58 112.375 58 118 C50.74 118 43.48 118 36 118 C34.845 115.751875 33.69 113.50375 32.5 111.1875 C32.13455078 110.48391357 31.76910156 109.78032715 31.39257812 109.05541992 C29.93296765 106.1746751 29 104.27087277 29 101 C28.34 101 27.68 101 27 101 C26.43732422 99.65808594 26.43732422 99.65808594 25.86328125 98.2890625 C22.80335546 91.0593134 19.60345067 83.97883485 16 77 C15.05849466 75.16872038 14.12093518 73.33540626 13.1875 71.5 C12.76855469 70.6853125 12.34960938 69.870625 11.91796875 69.03125 C11 67 11 67 11 65 C10.34 65 9.68 65 9 65 C8.5875 63.845 8.175 62.69 7.75 61.5 C6.13007251 57.15952444 4.12951159 53.11216031 2 49 C1.01 49 0.02 49 -1 49 C-1.23074219 49.56847656 -1.46148437 50.13695312 -1.69921875 50.72265625 C-3.31861778 54.55672747 -4.84080702 57.79053556 -7.375 61.125 C-10.3219788 65.00965388 -11.77822916 69.35761453 -13.4855957 73.89038086 C-15.72335497 79.65759121 -18.62697266 84.87710841 -21.74414062 90.20849609 C-24.60257608 95.14524221 -26.80776056 100.16348763 -28.89453125 105.4765625 C-30.15567863 108.35536535 -31.74848597 110.55381216 -33.66796875 113.015625 C-37.39473683 118.56752583 -40.65531524 125.42064959 -42 132 C-42.66 132 -43.32 132 -44 132 C-44.17015625 132.65226563 -44.3403125 133.30453125 -44.515625 133.9765625 C-46.01179634 139.37232937 -47.72802699 143.39878795 -51 148 C-52.03101947 150.31979381 -53.02936517 152.65429915 -54 155 C-54.67694373 156.38022768 -55.36471995 157.75518824 -56.0625 159.125 C-57.53860282 162.03196111 -58.85390548 164.94374794 -60 168 C-60.66 168 -61.32 168 -62 168 C-62.28875 169.2375 -62.5775 170.475 -62.875 171.75 C-63.61334794 174.72448742 -64.44474933 177.333856 -66 180 C-66.66 180 -67.32 180 -68 180 C-68.20496094 180.69867188 -68.40992188 181.39734375 -68.62109375 182.1171875 C-68.89050781 183.02726563 -69.15992188 183.93734375 -69.4375 184.875 C-69.70433594 185.77992188 -69.97117188 186.68484375 -70.24609375 187.6171875 C-71 190 -71 190 -72 192 C-72.66 192 -73.32 192 -74 192 C-74.14695313 192.59425781 -74.29390625 193.18851563 -74.4453125 193.80078125 C-76.6111892 201.80456699 -80.28594147 208.56304646 -84.59375 215.60546875 C-86.13907482 218.12185433 -86.13907482 218.12185433 -87.5 221.5 C-89 225 -89 225 -90.5625 227.5625 C-92.38631926 230.46052748 -92.38631926 230.46052748 -94 236 C-101.59 236 -109.18 236 -117 236 C-115.23698355 228.94793418 -112.07868034 222.96120302 -108.15234375 216.88671875 C-106.42481021 214.05824858 -105.24753873 211.06686605 -104 208 C-103.17573304 206.1209967 -102.34169238 204.24626251 -101.5 202.375 C-101.0978125 201.47523438 -100.695625 200.57546875 -100.28125 199.6484375 C-99 197 -99 197 -97.49609375 194.5 C-95.96243246 191.93722395 -94.75775542 189.36037142 -93.5625 186.625 C-92.1071241 183.36355521 -90.62226698 180.20430502 -88.8125 177.125 C-86.9703165 174.12231477 -86.9703165 174.12231477 -85.875 171.1875 C-85 169 -85 169 -83 167 C-82.26553181 165.36413903 -81.53752404 163.72480464 -80.85546875 162.06640625 C-79.92391622 159.81621771 -78.93518499 157.59661081 -77.9375 155.375 C-76.55449586 152.27516313 -75.22565717 149.16628103 -74 146 C-73.34 146 -72.68 146 -72 146 C-71.81824219 145.39671875 -71.63648438 144.7934375 -71.44921875 144.171875 C-71.07216797 142.97304688 -71.07216797 142.97304688 -70.6875 141.75 C-70.44386719 140.96109375 -70.20023438 140.1721875 -69.94921875 139.359375 C-69 137 -69 137 -67.515625 135.0390625 C-65.74280705 132.65398268 -64.98257946 130.44447097 -64.0625 127.625 C-62.54107362 123.23559747 -60.66617562 119.82151838 -58 116 C-56.75675853 112.7750792 -56.75675853 112.7750792 -56 110 C-55.34 110 -54.68 110 -54 110 C-53.814375 108.8553125 -53.814375 108.8553125 -53.625 107.6875 C-53 105 -53 105 -51 102 C-50.34 102 -49.68 102 -49 102 C-48.9071875 100.824375 -48.9071875 100.824375 -48.8125 99.625 C-47.88205154 95.47376841 -46.23389196 92.20613018 -44.25390625 88.46484375 C-42.9628424 86.02791557 -42.9628424 86.02791557 -42.01953125 83.48046875 C-40.95471675 80.88982811 -39.64247054 78.72589996 -38.125 76.375 C-35.37199586 71.89802725 -33.62552257 67.45466005 -31.9375 62.49609375 C-30.69718047 59.193743 -29.21853129 56.73618859 -27 54 C-26.34 54 -25.68 54 -25 54 C-24.91492188 53.17371094 -24.82984375 52.34742188 -24.7421875 51.49609375 C-23.83943761 47.24366662 -22.14226288 43.88373093 -20.125 40.0625 C-18.08197003 36.12985441 -16.05402033 32.22488992 -14.328125 28.140625 C-13.08781885 25.20766575 -11.64441714 22.71961296 -10 20 C-6.32371301 13.26333335 -6.32371301 13.26333335 -4 6 C-3.34 6 -2.68 6 -2 6 C-1.34 4.02 -0.68 2.04 0 0 Z " fill="#F7FAF8" transform="translate(173,80)"/>
<path d="M0 0 C7.59 0 15.18 0 23 0 C25 4 25 4 25 8 C25.66 8 26.32 8 27 8 C28.28714193 10.57428386 29.57426902 13.14857512 30.86132812 15.72290039 C31.95872426 17.91752917 33.05638287 20.11202673 34.15429688 22.30639648 C36.58803172 27.17135791 39.02080905 32.03670166 41.4375 36.91015625 C41.79134766 37.62236328 42.14519531 38.33457031 42.50976562 39.06835938 C43.14558003 40.34876669 43.7798312 41.62995214 44.41210938 42.91210938 C45.9117548 45.92825017 47.49521388 48.85463512 49.21875 51.74609375 C51 55 51 55 51 58 C16.35 58 -18.3 58 -54 58 C-53 52 -53 52 -46 39 C-24.88 39 -3.76 39 18 39 C15.44989891 32.10504312 15.44989891 32.10504312 12.0625 25.9375 C11.54042969 25.09058594 11.01835937 24.24367188 10.48046875 23.37109375 C9.99191406 22.58863281 9.50335938 21.80617188 9 21 C4.93050474 14.41329117 1.87847196 7.51388785 0 0 Z " fill="#FAFBFB" transform="translate(240,258)"/>
<path d="M0 0 C0.33 0 0.66 0 1 0 C1 19.8 1 39.6 1 60 C-18.8 60 -38.6 60 -59 60 C-59 59.67 -59 59.34 -59 59 C-58.00742187 58.79246094 -57.01484375 58.58492188 -55.9921875 58.37109375 C-37.62296222 54.30118361 -21.65461003 46.07033505 -11 30 C-5.61573925 20.49645542 -1.1634498 10.93642807 0 0 Z " fill="#FCFDFD" transform="translate(399,340)"/>
<path d="M0 0 C19.8 0 39.6 0 60 0 C60 19.14 60 38.28 60 58 C58.2735021 54.5470042 57.27118296 51.62361218 56.25 47.9375 C51.00469381 30.69741274 40.12144887 17.3287882 24.29882812 8.74853516 C16.37853835 4.64682169 8.8610152 2.32915228 0 1 C0 0.67 0 0.34 0 0 Z " fill="#FCFDFD" transform="translate(340,0)"/>
<path d="M0 0 C0.33 0 0.66 0 1 0 C1.20753906 0.99257813 1.41507812 1.98515625 1.62890625 3.0078125 C5.68946575 21.33483439 13.91209265 37.42310176 30 48 C38.54249764 52.99887559 47.25243543 57.01744449 57 59 C57 59.33 57 59.66 57 60 C38.19 60 19.38 60 0 60 C0 40.2 0 20.4 0 0 Z " fill="#FDFDFD" transform="translate(0,340)"/>
<path d="M0 0 C19.14 0 38.28 0 58 0 C54.5470042 1.7264979 51.62361218 2.72881704 47.9375 3.75 C31.55094012 8.73562001 17.21876746 19.35015558 8.98828125 34.58203125 C4.99549499 42.47546254 2.54518948 50.27335844 1 59 C0.67 59 0.34 59 0 59 C0 39.53 0 20.06 0 0 Z " fill="#FDFEFD" transform="translate(0,0)"/>
<path d="M0 0 C0.33 0 0.66 0 1 0 C1 2.97 1 5.94 1 9 C33.01 9.33 65.02 9.66 98 10 C98 9.34 98 8.68 98 8 C97.01 7.67 96.02 7.34 95 7 C95 4.69 95 2.38 95 0 C101 7.71428571 101 7.71428571 101 12 C66.35 12 31.7 12 -4 12 C-3.16687441 7.00124645 -2.34505694 4.28227788 0 0 Z " fill="#C0D6CD" transform="translate(190,304)"/>
<path d="M0 0 C-7.57978594 4.47013017 -15.8061841 4.15116239 -24.37524414 4.11352539 C-25.70857788 4.11374443 -25.70857788 4.11374443 -27.06884766 4.1139679 C-29.97430966 4.11327744 -32.8797056 4.10552608 -35.78515625 4.09765625 C-37.81253525 4.09578899 -39.8399147 4.09436654 -41.86729431 4.09336853 C-47.1789171 4.08956764 -52.49051213 4.07975831 -57.80212402 4.06866455 C-63.23201116 4.058398 -68.66190281 4.05385971 -74.09179688 4.04882812 C-84.72787671 4.03813368 -95.36393604 4.0210867 -106 4 C-105.67 3.34 -105.34 2.68 -105 2 C-103.8674025 1.99191315 -102.73480499 1.98382629 -101.56788635 1.97549438 C-90.87195436 1.8978661 -80.17614697 1.81008508 -69.48037815 1.71247292 C-63.98214279 1.66261805 -58.48392564 1.61628724 -52.9855957 1.578125 C-47.67518008 1.54113544 -42.36492092 1.49473881 -37.05463982 1.44193649 C-35.03298639 1.42346502 -33.01129951 1.40833059 -30.98959541 1.39665604 C-28.14858244 1.37966906 -25.30792218 1.35060491 -22.46704102 1.31884766 C-21.63913055 1.31668747 -20.81122009 1.31452728 -19.95822144 1.31230164 C-15.08336545 1.24310627 -10.73165343 0.62850511 -6.02654934 -0.67136574 C-3.72649315 -1.04435309 -2.20111992 -0.70500912 0 0 Z " fill="#609782" transform="translate(288,236)"/>
<path d="M0 0 C1.52519276 0.08937803 3.04681929 0.24537146 4.5625 0.4375 C5.38878906 0.53933594 6.21507812 0.64117187 7.06640625 0.74609375 C7.70449219 0.82988281 8.34257812 0.91367188 9 1 C9 1.33 9 1.66 9 2 C2.78082612 3.62317865 -3.00339729 4.29476237 -9.41943359 4.28710938 C-10.31325745 4.29394241 -11.2070813 4.30077545 -12.12799072 4.30781555 C-14.0512685 4.3213138 -15.97458124 4.33042434 -17.89789963 4.33552551 C-20.9408168 4.34386616 -23.98344125 4.36441396 -27.02627563 4.38806152 C-34.57442011 4.44425306 -42.12263514 4.47976189 -49.67089844 4.51568604 C-56.0690436 4.54689824 -62.46704284 4.5860341 -68.86507034 4.63594055 C-71.86476829 4.65602457 -74.86435404 4.66432803 -77.86410522 4.67224121 C-79.69505224 4.68520758 -81.52599545 4.698727 -83.35693359 4.71289062 C-84.60994766 4.71141777 -84.60994766 4.71141777 -85.88827515 4.70991516 C-89.77348569 4.75192006 -91.69297216 4.79531477 -95 7 C-93.125 3.125 -93.125 3.125 -92 2 C-89.17557043 1.88008905 -86.37450201 1.82452711 -83.54882812 1.81054688 C-82.66271347 1.80225357 -81.77659882 1.79396027 -80.8636322 1.78541565 C-78.93310869 1.76797471 -77.00256353 1.75281908 -75.07200623 1.73963928 C-72.02194562 1.71868608 -68.97199401 1.69165814 -65.92199707 1.66296387 C-58.34622566 1.59297638 -50.77037697 1.53366972 -43.19451904 1.47393799 C-36.7978001 1.42309984 -30.40113943 1.3683001 -24.00450134 1.30812073 C-20.99036363 1.28144131 -17.97622082 1.26068996 -14.96203613 1.2401123 C-13.12507873 1.22351667 -11.28812379 1.20664548 -9.45117188 1.18945312 C-8.60542099 1.18526871 -7.7596701 1.18108429 -6.88829041 1.17677307 C-3.13832784 1.49539009 -3.13832784 1.49539009 0 0 Z " fill="#DBE6E0" transform="translate(275,234)"/>
<path d="M0 0 C1.0445787 -0.00503792 1.0445787 -0.00503792 2.11026001 -0.01017761 C4.41589133 -0.0196857 6.72144989 -0.02163122 9.02709961 -0.02270508 C10.63553395 -0.02591979 12.243968 -0.02928402 13.85240173 -0.03279114 C17.22924476 -0.03878348 20.60606219 -0.04063113 23.98291016 -0.04003906 C28.28767935 -0.0399379 32.5922819 -0.05354211 36.89701176 -0.07081127 C40.22324866 -0.08199499 43.54944623 -0.08395626 46.8757 -0.08342934 C48.4611512 -0.08460172 50.04660367 -0.08898135 51.63203621 -0.0967617 C59.97608038 -0.13384776 67.99196168 -0.04145135 76.11694336 2.14526367 C76.11694336 2.47526367 76.11694336 2.80526367 76.11694336 3.14526367 C35.03194336 2.65026367 35.03194336 2.65026367 -6.88305664 2.14526367 C-6.22305664 3.46526367 -5.56305664 4.78526367 -4.88305664 6.14526367 C-5.25805664 8.39526367 -5.25805664 8.39526367 -5.88305664 10.14526367 C-6.87305664 9.48526367 -7.86305664 8.82526367 -8.88305664 8.14526367 C-9.57055664 4.52026367 -9.57055664 4.52026367 -9.88305664 1.14526367 C-6.4020718 -0.01506461 -3.67367318 0.01111361 0 0 Z " fill="#388365" transform="translate(205.883056640625,76.854736328125)"/>
<path d="M0 0 C8.48442224 -0.04644497 16.9687909 -0.08193079 25.45330906 -0.10362434 C29.3934791 -0.11403883 33.33356183 -0.12815512 37.27368164 -0.15087891 C41.07974538 -0.17269091 44.8857254 -0.18458617 48.69184685 -0.18975449 C50.14023086 -0.19343529 51.58861055 -0.20062286 53.03695869 -0.21146011 C55.07364751 -0.22608649 57.1099952 -0.22797335 59.14672852 -0.22705078 C60.30366714 -0.231492 61.46060577 -0.23593323 62.65260315 -0.24050903 C69.36169902 0.24153664 74.38800689 2.56408585 80 6 C78.68 6.66 77.36 7.32 76 8 C75.505 7.01 75.505 7.01 75 6 C72.25687336 5.34427396 72.25687336 5.34427396 69.0625 4.9375 C63.17755444 4.08877722 63.17755444 4.08877722 61 3 C59.06028622 2.87994453 57.11656384 2.82266656 55.17333984 2.79467773 C53.95222504 2.77473251 52.73111023 2.75478729 51.47299194 2.73423767 C50.13564177 2.71725344 48.79829025 2.70037463 47.4609375 2.68359375 C46.09615447 2.66302397 44.73137782 2.64202749 43.36660767 2.62062073 C39.77292027 2.56540241 36.1791754 2.51599213 32.58538818 2.46777344 C28.91885254 2.41755663 25.25240044 2.36187151 21.5859375 2.30664062 C14.39069574 2.199062 7.19538454 2.09761643 0 2 C0 1.34 0 0.68 0 0 Z " fill="#77A392" transform="translate(208,99)"/>
<path d="M0 0 C1.1875 1.5 1.1875 1.5 2 4 C1.01 6.64 0.02 9.28 -1 12 C33.65 12 68.3 12 104 12 C102.35 8.7 100.7 5.4 99 2 C99 1.34 99 0.68 99 0 C99.99 0.33 100.98 0.66 102 1 C103.16796875 3.50390625 103.16796875 3.50390625 104.1875 6.5625 C104.53167969 7.57441406 104.87585938 8.58632813 105.23046875 9.62890625 C105.48441406 10.41136719 105.73835938 11.19382812 106 12 C104 14 104 14 102.10125637 14.24888897 C100.9334493 14.24807182 100.9334493 14.24807182 99.74205017 14.24723816 C98.40224342 14.25352989 98.40224342 14.25352989 97.03536987 14.25994873 C95.56174484 14.25151947 95.56174484 14.25151947 94.05834961 14.24291992 C93.02578537 14.24481827 91.99322113 14.24671661 90.92936707 14.24867249 C87.5036163 14.25238846 84.07807579 14.24166501 80.65234375 14.23046875 C78.28105189 14.22927739 75.90975955 14.22882369 73.53846741 14.2290802 C68.56427057 14.22751395 63.59014556 14.21921297 58.6159668 14.20581055 C52.22414434 14.18881129 45.83240085 14.18499638 39.44055843 14.18575573 C34.54312886 14.18548446 29.64571672 14.18001039 24.74829292 14.17275429 C22.39065241 14.16956121 20.03300991 14.16759873 17.67536736 14.16686058 C14.38762892 14.16470429 11.09997606 14.15597579 7.81225586 14.14526367 C6.33559448 14.14594345 6.33559448 14.14594345 4.82910156 14.14663696 C3.93871689 14.14237198 3.04833221 14.13810699 2.13096619 14.13371277 C1.35280517 14.13203692 0.57464415 14.13036108 -0.22709751 14.12863445 C-2 14 -2 14 -3 13 C-3.1875 9.5625 -3.1875 9.5625 -3 6 C-2.34 5.34 -1.68 4.68 -1 4 C-0.3574765 1.93125966 -0.3574765 1.93125966 0 0 Z " fill="#45886E" transform="translate(187,304)"/>
<path d="M0 0 C2.56864728 1.28432364 2.946539 2.36634751 4 5 C4 6.32 4 7.64 4 9 C-17.12 9 -38.24 9 -60 9 C-59.67 8.34 -59.34 7.68 -59 7 C-38.87 7 -18.74 7 2 7 C1.34 4.69 0.68 2.38 0 0 Z " fill="#7BA695" transform="translate(254,288)"/>
<path d="M0 0 C0.33 0 0.66 0 1 0 C3.70564733 16.91029579 2.4224545 36.99083769 -7.25 51.6875 C-7.8275 52.450625 -8.405 53.21375 -9 54 C-9.609375 52.22265625 -9.609375 52.22265625 -10 50 C-9.07029925 48.1073949 -8.13056837 46.21847314 -7.12109375 44.3671875 C-5.42630854 40.78865149 -4.55714255 37.0561041 -3.61328125 33.22265625 C-3 31 -3 31 -2 30 C-0.82683994 23.73445627 -0.6782457 17.4205544 -0.4375 11.0625 C-0.39431641 9.99708984 -0.35113281 8.93167969 -0.30664062 7.83398438 C-0.20125511 5.22276557 -0.09912912 2.61146254 0 0 Z " fill="#C9DCD4" transform="translate(342,144)"/>
<path d="M0 0 C10.10083446 -0.04632832 20.20164367 -0.08187175 30.30256271 -0.10362434 C34.99276226 -0.11406417 39.68288915 -0.12822705 44.37304688 -0.15087891 C48.89880335 -0.17260012 53.42448991 -0.18456713 57.95029449 -0.18975449 C59.67747346 -0.19345153 61.40464857 -0.20067088 63.13179779 -0.21146011 C65.54986357 -0.22596545 67.96763994 -0.22797835 70.38574219 -0.22705078 C71.10071869 -0.23424133 71.81569519 -0.24143188 72.55233765 -0.24884033 C76.52308451 -0.23234465 78.32387662 0.16193831 82 2 C55.93 1.67 29.86 1.34 3 1 C3.33 3.64 3.66 6.28 4 9 C1.18167487 7.59083743 0.97406539 5.92219617 0 3 C0 2.01 0 1.02 0 0 Z " fill="#ADCDBF" transform="translate(199,79)"/>
<path d="M0 0 C1 2 1 2 0.546875 4.05859375 C0.28390625 4.84363281 0.0209375 5.62867188 -0.25 6.4375 C-0.50265625 7.21996094 -0.7553125 8.00242187 -1.015625 8.80859375 C-2 11 -2 11 -3.484375 12.47265625 C-5.49901087 14.30411684 -5.49901087 14.30411684 -7 19 C-0.73 19 5.54 19 12 19 C12 18.34 12 17.68 12 17 C12.66 17 13.32 17 14 17 C14.33 15.02 14.66 13.04 15 11 C15.99 11 16.98 11 18 11 C16.8741386 14.53842155 15.66905241 17.66189518 14 21 C6.41 21 -1.18 21 -9 21 C-8.15503637 16.77518183 -7.27175321 14.54914544 -5.12109375 10.98046875 C-3.12645283 7.45683479 -1.5863069 3.72107096 0 0 Z " fill="#C1D7CF" transform="translate(130,295)"/>
<path d="M0 0 C0.66 0 1.32 0 2 0 C-0.27435204 7.18216433 -3.03584181 14.0758202 -6 21 C-6.66 21 -7.32 21 -8 21 C-8.37125 21.9590625 -8.37125 21.9590625 -8.75 22.9375 C-10.97176478 28.38082372 -13.33703911 33.75729576 -16 39 C-17.46731756 36.06536488 -16.52729093 34.20595597 -15.75 31.0625 C-15.49734375 30.00160156 -15.2446875 28.94070312 -14.984375 27.84765625 C-13.99869809 24.99623377 -13.27371406 23.8820975 -11 22 C-7.64221103 18.43870866 -6.48761604 15.64269027 -5.49609375 10.9921875 C-4.47444398 6.88949945 -2.32223813 3.4833572 0 0 Z " fill="#689B87" transform="translate(154,113)"/>
<path d="M0 0 C20.79 0 41.58 0 63 0 C63 0.33 63 0.66 63 1 C42.87 1.33 22.74 1.66 2 2 C1.67 3.32 1.34 4.64 1 6 C-0.32 6.33 -1.64 6.66 -3 7 C-1.125 2.25 -1.125 2.25 0 0 Z " fill="#E9F4EE" transform="translate(194,297)"/>
<path d="M0 0 C19.8 0 39.6 0 60 0 C60 0.33 60 0.66 60 1 C41.19 1 22.38 1 3 1 C3.66 2.32 4.32 3.64 5 5 C4.625 7.25 4.625 7.25 4 9 C3.01 8.34 2.02 7.68 1 7 C0.67 4.69 0.34 2.38 0 0 Z " fill="#4F8971" transform="translate(196,78)"/>
<path d="M0 0 C0.33 0 0.66 0 1 0 C1.79401091 7.54310364 -1.56638269 14.13618356 -6 20 C-6.7115625 21.794375 -6.7115625 21.794375 -7.4375 23.625 C-9 27 -9 27 -11.1875 28.4375 C-11.785625 28.623125 -12.38375 28.80875 -13 29 C-11.85908391 25.95755708 -10.54769231 23.07252875 -9.0625 20.1875 C-7.04512377 16.22074899 -5.49621107 12.189391 -4 8 C-3.34 8 -2.68 8 -2 8 C-1.34 5.36 -0.68 2.72 0 0 Z " fill="#58957D" transform="translate(103,264)"/>
<path d="M0 0 C0 3.48560546 -0.77785245 4.69664268 -2.5 7.6875 C-5.27195277 12.62131068 -7.85818816 17.62067152 -10.375 22.6875 C-10.73271484 23.40703857 -11.09042969 24.12657715 -11.45898438 24.86791992 C-12.30762006 26.57780503 -13.1540533 28.28878295 -14 30 C-14.33 30 -14.66 30 -15 30 C-15 28.35 -15 26.7 -15 25 C-14.34 25 -13.68 25 -13 25 C-13 23.68 -13 22.36 -13 21 C-12.34 21 -11.68 21 -11 21 C-11 18.69 -11 16.38 -11 14 C-10.01 13.67 -9.02 13.34 -8 13 C-7.04764395 11.00207384 -7.04764395 11.00207384 -6.4375 8.625 C-5.54987314 5.54588761 -4.81775218 3.72662828 -3 1 C-2.01 0.67 -1.02 0.34 0 0 Z " fill="#488870" transform="translate(167,221)"/>
<path d="M0 0 C0.99 0 1.98 0 3 0 C1.93736614 4.3322765 1.18566691 6.94175977 -2 10 C-2.72885781 11.62336511 -3.45058586 13.25086477 -4.11328125 14.90234375 C-5.5112463 18.20942407 -7.17881338 21.37675132 -8.81640625 24.5703125 C-10.00372499 27.00764668 -11.02374798 29.47164224 -12 32 C-13.25751405 29.4849719 -12.84039825 28.6655935 -12.125 26 C-11.94195312 25.29875 -11.75890625 24.5975 -11.5703125 23.875 C-11 22 -11 22 -10 20 C-9.34 20 -8.68 20 -8 20 C-8 18.68 -8 17.36 -8 16 C-7.34 16 -6.68 16 -6 16 C-5.88785156 15.29488281 -5.77570313 14.58976563 -5.66015625 13.86328125 C-4.93685092 10.72610488 -3.80542309 8.09872094 -2.4375 5.1875 C-1.98246094 4.21167969 -1.52742188 3.23585937 -1.05859375 2.23046875 C-0.70925781 1.49441406 -0.35992187 0.75835937 0 0 Z " fill="#57907A" transform="translate(90,240)"/>
<path d="M0 0 C0 3.64419194 -1.1252712 4.92363781 -3 8 C-4.03348901 10.77037929 -4.93777589 13.56336111 -5.83984375 16.37890625 C-7.12372283 19.27952195 -8.64372525 20.90935956 -11 23 C-11 21.35 -11 19.7 -11 18 C-10.34 18 -9.68 18 -9 18 C-9.2475 17.113125 -9.495 16.22625 -9.75 15.3125 C-10 12 -10 12 -8.1875 9.125 C-6 7 -6 7 -4 7 C-3.67 5.02 -3.34 3.04 -3 1 C-2.01 0.67 -1.02 0.34 0 0 Z " fill="#529077" transform="translate(115,194)"/>
<path d="M0 0 C0.66 0 1.32 0 2 0 C1.44271087 3.34373475 0.64826111 6.03312999 -1 9 C-1.66 9 -2.32 9 -3 9 C-3.0825 9.825 -3.165 10.65 -3.25 11.5 C-4.46435948 17.16701092 -6.70720962 22.03836773 -11 26 C-10.74438677 23.6568787 -10.40729228 21.32156597 -10 19 C-9.34 18.67 -8.68 18.34 -8 18 C-7.31270746 15.88153715 -7.31270746 15.88153715 -6.875 13.4375 C-6.70742187 12.61121094 -6.53984375 11.78492188 -6.3671875 10.93359375 C-6.24601563 10.29550781 -6.12484375 9.65742188 -6 9 C-5.34 9 -4.68 9 -4 9 C-3.855625 8.38125 -3.71125 7.7625 -3.5625 7.125 C-3 5 -3 5 -2 3 C-1.34 3 -0.68 3 0 3 C0 2.01 0 1.02 0 0 Z " fill="#CEE2DA" transform="translate(178,241)"/>
<path d="M0 0 C0.99 0.495 0.99 0.495 2 1 C2.33 2.32 2.66 3.64 3 5 C10.26 5.33 17.52 5.66 25 6 C25.33 5.01 25.66 4.02 26 3 C26.5625 4.9375 26.5625 4.9375 27 7 C26 8 26 8 23.68334961 8.11352539 C22.68311768 8.10828857 21.68288574 8.10305176 20.65234375 8.09765625 C19.57275391 8.09443359 18.49316406 8.09121094 17.38085938 8.08789062 C16.24455078 8.07951172 15.10824219 8.07113281 13.9375 8.0625 C12.79732422 8.05798828 11.65714844 8.05347656 10.48242188 8.04882812 C7.65489649 8.03699747 4.8274736 8.0205141 2 8 C0 2.25 0 2.25 0 0 Z " fill="#5A957D" transform="translate(206,192)"/>
<path d="M0 0 C0.99 0.33 1.98 0.66 3 1 C3.70491267 3.32206525 4.37212429 5.65593068 5 8 C5.66 8.33 6.32 8.66 7 9 C7 9.99 7 10.98 7 12 C7.66 12 8.32 12 9 12 C12 18.625 12 18.625 12 22 C12.66 22 13.32 22 14 22 C14.33 24.31 14.66 26.62 15 29 C12.92296789 26.33297036 11.17199617 23.65847163 9.5625 20.6875 C8.05723565 17.91654791 6.51371623 15.19352208 4.875 12.5 C2.70548467 8.45023805 1.31344751 4.38810874 0 0 Z " fill="#DEEBE7" transform="translate(242,263)"/>
<path d="M0 0 C0.66 0 1.32 0 2 0 C1.67 1.98 1.34 3.96 1 6 C0.34 6 -0.32 6 -1 6 C-1.14695312 6.59425781 -1.29390625 7.18851562 -1.4453125 7.80078125 C-3.3211928 14.73291364 -6.07074898 20.96931111 -10 27 C-10.66 27.33 -11.32 27.66 -12 28 C-10.27933894 22.55123997 -8.15294651 17.28830549 -6 12 C-5.34 12 -4.68 12 -4 12 C-3.87625 10.865625 -3.7525 9.73125 -3.625 8.5625 C-3.41875 7.386875 -3.2125 6.21125 -3 5 C-2.34 4.67 -1.68 4.34 -1 4 C-0.34786708 1.97536745 -0.34786708 1.97536745 0 0 Z " fill="#D3E5DC" transform="translate(100,266)"/>
<path d="M0 0 C1 2 1 2 0.51171875 4.0234375 C0.10373047 5.18746094 0.10373047 5.18746094 -0.3125 6.375 C-0.70888672 7.53128906 -0.70888672 7.53128906 -1.11328125 8.7109375 C-2.92450746 13.38661396 -4.52945197 15.70759289 -8.625 18.75 C-9.44226563 19.36359375 -10.25953125 19.9771875 -11.1015625 20.609375 C-11.72804688 21.06828125 -12.35453125 21.5271875 -13 22 C-13.66 21.67 -14.32 21.34 -15 21 C-9.55307263 13.51955307 -9.55307263 13.51955307 -6.9375 11.0625 C-3.89787059 7.82676547 -2.0424603 3.91750582 0 0 Z " fill="#669E89" transform="translate(335,193)"/>
<path d="M0 0 C0.33 0.99 0.66 1.98 1 3 C1.66 3 2.32 3 3 3 C3.25394531 3.65226562 3.50789062 4.30453125 3.76953125 4.9765625 C5.65626252 9.76758798 7.60344296 14.43512945 10 19 C10.33 19.66 10.66 20.32 11 21 C10.34 21.99 9.68 22.98 9 24 C5.43420048 16.41673302 2.00285445 8.82508541 -1 1 C-0.67 0.67 -0.34 0.34 0 0 Z " fill="#4B8B73" transform="translate(179,87)"/>
<path d="M0 0 C1.70168202 5.00086146 -0.06920936 9.27505705 -2 14 C-4.0625 16.625 -4.0625 16.625 -6 18 C-6.66 18 -7.32 18 -8 18 C-7.34 16.02 -6.68 14.04 -6 12 C-5.34 12 -4.68 12 -4 12 C-3.8453125 10.700625 -3.8453125 10.700625 -3.6875 9.375 C-2.96601586 5.83316877 -1.72876739 3.15687958 0 0 Z " fill="#629A83" transform="translate(135,200)"/>
<path d="M0 0 C0.33 0 0.66 0 1 0 C1.52731199 7.14800699 0.77378384 11.89972576 -3 18 C-3.5775 18.99 -4.155 19.98 -4.75 21 C-5.1625 21.66 -5.575 22.32 -6 23 C-6.609375 21.22265625 -6.609375 21.22265625 -7 19 C-6.07107168 17.10896735 -5.13240965 15.2215094 -4.125 13.37109375 C-2.10868514 9.12143014 -1.10556553 4.55627007 0 0 Z " fill="#D5E6DF" transform="translate(339,175)"/>
<path d="M0 0 C1.1127563 3.3155596 0.9007397 5.32161249 -0.1875 8.625 C-0.42855469 9.40101563 -0.66960937 10.17703125 -0.91796875 10.9765625 C-2.23750029 13.44413411 -3.43218752 14.01115296 -6 15 C-6 15.66 -6 16.32 -6 17 C-6.66 17 -7.32 17 -8 17 C-7.67 15.68 -7.34 14.36 -7 13 C-6.34 13 -5.68 13 -5 13 C-4.80664062 12.31292969 -4.61328125 11.62585938 -4.4140625 10.91796875 C-4.15367188 10.01691406 -3.89328125 9.11585938 -3.625 8.1875 C-3.36976562 7.29417969 -3.11453125 6.40085938 -2.8515625 5.48046875 C-2 3 -2 3 0 0 Z " fill="#55937A" transform="translate(118,235)"/>
<path d="M0 0 C0.66 0 1.32 0 2 0 C1.34 2.31 0.68 4.62 0 7 C-0.66 7 -1.32 7 -2 7 C-2.0825 7.639375 -2.165 8.27875 -2.25 8.9375 C-3.29520372 13.20541517 -5.14091826 17.03107667 -7 21 C-7.66 19.68 -8.32 18.36 -9 17 C-8.01 17 -7.02 17 -6 17 C-6.020625 16.05125 -6.04125 15.1025 -6.0625 14.125 C-6 11 -6 11 -5 9 C-4.34 9 -3.68 9 -3 9 C-3 7.68 -3 6.36 -3 5 C-2.34 5 -1.68 5 -1 5 C-0.67 3.35 -0.34 1.7 0 0 Z " fill="#58917B" transform="translate(101,219)"/>
<path d="M0 0 C0.86625 0.4640625 0.86625 0.4640625 1.75 0.9375 C3.90435397 2.08633307 3.90435397 2.08633307 6.0625 2.3125 C8.97706473 3.34670039 9.60327978 5.33353412 11 8 C11.99 9.485 11.99 9.485 13 11 C13.70812814 13.32108669 14.38024152 15.65377147 15 18 C12.97245961 16.17521365 11.62971904 14.43223586 10.125 12.125 C8.00463987 9.00682333 5.69294859 6.62389862 3 4 C1.97186389 2.68824014 0.95915568 1.3630107 0 0 Z " fill="#CCE1D8" transform="translate(300,113)"/>
<path d="M0 0 C8.4665929 -0.70229803 16.05735107 1.07488467 24 4 C24.66 4.66 25.32 5.32 26 6 C24.68 6.33 23.36 6.66 22 7 C21.67 6.34 21.34 5.68 21 5 C18.49446209 4.37662899 18.49446209 4.37662899 15.5 4 C10.26314131 3.21071269 5.15633765 2.20314545 0 1 C0 0.67 0 0.34 0 0 Z " fill="#4F8E76" transform="translate(262,100)"/>
<path d="M0 0 C0.66 0 1.32 0 2 0 C0.26017005 5.81261371 -1.8110489 10.83169994 -5 16 C-5.33 16 -5.66 16 -6 16 C-5.36280747 9.62807469 -3.52697677 5.29046516 0 0 Z " fill="#508E76" transform="translate(154,113)"/>
<path d="M0 0 C4.54805635 -0.17835515 7.8794254 0.00214565 12 2 C12 2.66 12 3.32 12 4 C13.98 4.66 15.96 5.32 18 6 C18 6.99 18 7.98 18 9 C17.34 9 16.68 9 16 9 C16 8.34 16 7.68 16 7 C15.21625 6.7525 14.4325 6.505 13.625 6.25 C9.01598671 4.66068507 4.51452284 2.83792827 0 1 C0 0.67 0 0.34 0 0 Z " fill="#4B8C73" transform="translate(290,83)"/>
<path d="M0 0 C0.66 0.99 1.32 1.98 2 3 C1.01 3.33 0.02 3.66 -1 4 C-0.938125 5.423125 -0.938125 5.423125 -0.875 6.875 C-1 10 -1 10 -3 12 C-3.309375 13.010625 -3.61875 14.02125 -3.9375 15.0625 C-4.288125 16.031875 -4.63875 17.00125 -5 18 C-5.99 18.33 -6.98 18.66 -8 19 C-6.03756846 12.39909392 -3.07492204 6.14984407 0 0 Z " fill="#E1EEE8" transform="translate(155,245)"/>
<path d="M0 0 C0 3.39412074 -0.76098751 4.83304682 -2.3125 7.8125 C-2.76625 8.69292969 -3.22 9.57335937 -3.6875 10.48046875 C-4.120625 11.31191406 -4.55375 12.14335937 -5 13 C-5.60701035 14.2069073 -6.21180139 15.41493885 -6.8125 16.625 C-7.204375 17.40875 -7.59625 18.1925 -8 19 C-9.31223496 15.06329512 -8.24296256 12.87511856 -7 9 C-6.34 9 -5.68 9 -5 9 C-5 8.01 -5 7.02 -5 6 C-4.34 6 -3.68 6 -3 6 C-2.814375 4.7934375 -2.814375 4.7934375 -2.625 3.5625 C-2.41875 2.716875 -2.2125 1.87125 -2 1 C-1.34 0.67 -0.68 0.34 0 0 Z " fill="#C6DBD3" transform="translate(123,224)"/>
<path d="M0 0 C0.66 0.33 1.32 0.66 2 1 C0.71937515 2.7074998 -0.61767557 4.37373596 -2 6 C-2.66 6 -3.32 6 -4 6 C-4.103125 6.598125 -4.20625 7.19625 -4.3125 7.8125 C-5.08876455 10.28243264 -6.07088921 11.32251235 -8 13 C-9.32 12.34 -10.64 11.68 -12 11 C-11.360625 10.38125 -10.72125 9.7625 -10.0625 9.125 C-7.96116416 7.17402388 -7.96116416 7.17402388 -7 5 C-6.195625 4.690625 -5.39125 4.38125 -4.5625 4.0625 C-1.70136041 3.15452711 -1.70136041 3.15452711 0 0 Z " fill="#74A792" transform="translate(318,215)"/>
<path d="M0 0 C0.66 0 1.32 0 2 0 C1.34 2.64 0.68 5.28 0 8 C-0.66 8 -1.32 8 -2 8 C-2.19335938 8.69867188 -2.38671875 9.39734375 -2.5859375 10.1171875 C-2.84632813 11.02726563 -3.10671875 11.93734375 -3.375 12.875 C-3.63023438 13.77992188 -3.88546875 14.68484375 -4.1484375 15.6171875 C-5 18 -5 18 -7 20 C-7 18.02 -7 16.04 -7 14 C-6.34 14 -5.68 14 -5 14 C-4.9175 12.989375 -4.835 11.97875 -4.75 10.9375 C-4.15993932 6.62213084 -2.31083998 3.65261803 0 0 Z " fill="#D1E5DD" transform="translate(131,204)"/>
<path d="M0 0 C0.66 0 1.32 0 2 0 C1.67 1.65 1.34 3.3 1 5 C0.34 5 -0.32 5 -1 5 C-1.4021875 6.85625 -1.4021875 6.85625 -1.8125 8.75 C-2.63881995 12.10283779 -3.62671274 14.41095936 -6 17 C-6 15.02 -6 13.04 -6 11 C-5.34 11 -4.68 11 -4 11 C-3.896875 10.113125 -3.79375 9.22625 -3.6875 8.3125 C-2.98284093 4.9173245 -2.0445434 2.78057902 0 0 Z " fill="#C8DDD4" transform="translate(154,289)"/>
<path d="M0 0 C0.33 0.99 0.66 1.98 1 3 C1.66 3 2.32 3 3 3 C5.71391278 7.77357872 7.56561146 11.34388537 7 17 C4.88471245 14.26256906 2.99079587 11.4900729 1.25 8.5 C0.80140625 7.7471875 0.3528125 6.994375 -0.109375 6.21875 C-1.14027176 3.65055105 -0.95042831 2.54992963 0 0 Z " fill="#4B8C73" transform="translate(195,119)"/>
<path d="M0 0 C0.99 0 1.98 0 3 0 C1.25 5.75 1.25 5.75 -1 8 C-1.88778692 9.96488831 -1.88778692 9.96488831 -2.625 12.125 C-2.88539063 12.84945312 -3.14578125 13.57390625 -3.4140625 14.3203125 C-3.60742188 14.87460938 -3.80078125 15.42890625 -4 16 C-4.33 16 -4.66 16 -5 16 C-5.28571429 8.57142857 -5.28571429 8.57142857 -3 5 C-2.34 5 -1.68 5 -1 5 C-0.67 3.35 -0.34 1.7 0 0 Z " fill="#59937C" transform="translate(133,154)"/>
<path d="M0 0 C0 5.69511947 -3.42242307 9.80559946 -7 14 C-7 11.36 -7 8.72 -7 6 C-6.01 6 -5.02 6 -4 6 C-3.896875 5.38125 -3.79375 4.7625 -3.6875 4.125 C-3 2 -3 2 0 0 Z " fill="#56937C" transform="translate(139,277)"/>
<path d="M0 0 C0.33 1.32 0.66 2.64 1 4 C0.34 4 -0.32 4 -1 4 C-0.9175 4.721875 -0.835 5.44375 -0.75 6.1875 C-1.0758919 9.85378389 -2.59056508 11.29851237 -5 14 C-5.33 14.66 -5.66 15.32 -6 16 C-6.66 16 -7.32 16 -8 16 C-6.24233563 9.99464673 -3.46204947 5.1930742 0 0 Z " fill="#D3E5DC" transform="translate(139,279)"/>
<path d="M0 0 C0.33 0 0.66 0 1 0 C1.34699589 4.85794252 0.62403334 7.87651904 -2 12 C-3.98 12.99 -3.98 12.99 -6 14 C-5.01 11.03 -4.02 8.06 -3 5 C-2.34 5 -1.68 5 -1 5 C-0.67 3.35 -0.34 1.7 0 0 Z " fill="#D2E6DD" transform="translate(102,221)"/>
<path d="M0 0 C0.66 0 1.32 0 2 0 C2 0.99 2 1.98 2 3 C2.99 3.33 3.98 3.66 5 4 C5.33 7.3 5.66 10.6 6 14 C6.99 13.67 7.98 13.34 9 13 C9.33 13.99 9.66 14.98 10 16 C9.34 16.66 8.68 17.32 8 18 C8 17.34 8 16.68 8 16 C7.01 15.67 6.02 15.34 5 15 C3.95995231 12.4657993 3.10021603 10.04814798 2.3125 7.4375 C2.08755859 6.72658203 1.86261719 6.01566406 1.63085938 5.28320312 C1.07641983 3.52551181 0.53679811 1.76315902 0 0 Z " fill="#5C9781" transform="translate(213,158)"/>
<path d="M0 0 C0.66 0.33 1.32 0.66 2 1 C-0.45596893 3.87770097 -2.90889595 4.96687126 -6.4375 6.25 C-7.38496094 6.60578125 -8.33242188 6.9615625 -9.30859375 7.328125 C-12.05874071 8.01466386 -13.38003295 7.96622898 -16 7 C-14.92878906 6.57847656 -13.85757812 6.15695313 -12.75390625 5.72265625 C-11.35671698 5.16940681 -9.95958449 4.61601398 -8.5625 4.0625 C-7.50192383 3.64581055 -7.50192383 3.64581055 -6.41992188 3.22070312 C-2.95326119 2.03777966 -2.95326119 2.03777966 0 0 Z " fill="#659A86" transform="translate(304,227)"/>
<path d="M0 0 C0.33 0 0.66 0 1 0 C1.19818283 6.70518586 1.30844801 12.65176798 -1 19 C-1.66 19 -2.32 19 -3 19 C-2.27637073 12.60794144 -1.19656638 6.31972924 0 0 Z " fill="#5B917C" transform="translate(343,166)"/>
<path d="M0 0 C0.99 0 1.98 0 3 0 C3.66 2.97 4.32 5.94 5 9 C5.66 9 6.32 9 7 9 C7.66 10.98 8.32 12.96 9 15 C8.01 15.495 8.01 15.495 7 16 C6.67 14.35 6.34 12.7 6 11 C5.34 11 4.68 11 4 11 C2.68 7.37 1.36 3.74 0 0 Z " fill="#D8E9E1" transform="translate(196,170)"/>
<path d="M0 0 C0.33 0.66 0.66 1.32 1 2 C0.38511719 2.88751953 0.38511719 2.88751953 -0.2421875 3.79296875 C-1.05042969 4.97826172 -1.05042969 4.97826172 -1.875 6.1875 C-2.40867188 6.96480469 -2.94234375 7.74210938 -3.4921875 8.54296875 C-4.98015439 10.9676609 -6.02428078 13.3333499 -7 16 C-8.46726798 12.18510326 -7.43336419 9.70988378 -6 6 C-5.34 6 -4.68 6 -4 6 C-4 5.34 -4 4.68 -4 4 C-3.34 4 -2.68 4 -2 4 C-2 3.01 -2 2.02 -2 1 C-1.34 0.67 -0.68 0.34 0 0 Z " fill="#D0E2DA" transform="translate(168,134)"/>
<path d="M0 0 C2.91226879 1.4561344 3.31842064 3.49960664 4.625 6.4375 C5.07101562 7.42621094 5.51703125 8.41492188 5.9765625 9.43359375 C7 12 7 12 7 14 C6.01 14 5.02 14 4 14 C1.01520806 9.52281208 0 5.36175907 0 0 Z " fill="#C2D9CF" transform="translate(278,290)"/>
<path d="M0 0 C4.62 0 9.24 0 14 0 C14 0.33 14 0.66 14 1 C8.06 1.495 8.06 1.495 2 2 C1.67 3.32 1.34 4.64 1 6 C-0.32 6.33 -1.64 6.66 -3 7 C-1.125 2.25 -1.125 2.25 0 0 Z " fill="#DDEDE6" transform="translate(194,297)"/>
<path d="M0 0 C0.66 0 1.32 0 2 0 C2.33 1.65 2.66 3.3 3 5 C3.99 5.33 4.98 5.66 6 6 C8.04108797 9.00791911 8.19878036 11.42195344 8 15 C5 11.25 5 11.25 5 9 C4.34 9 3.68 9 3 9 C2.01 6.03 1.02 3.06 0 0 Z " fill="#56927C" transform="translate(222,177)"/>
<path d="M0 0 C1.32 0.33 2.64 0.66 4 1 C4 1.99 4 2.98 4 4 C3.1028125 4.37125 3.1028125 4.37125 2.1875 4.75 C-0.28647521 6.16370012 -1.43370255 7.65055383 -3 10 C-3.36923077 4.58461538 -3.36923077 4.58461538 -1.5 1.625 C-1.005 1.08875 -0.51 0.5525 0 0 Z " fill="#539078" transform="translate(172,128)"/>
<path d="M0 0 C0.66 0.99 1.32 1.98 2 3 C0.75210267 8.6848656 -2.33916443 13.86113435 -5 19 C-6.33332095 16.3333581 -5.67102033 14.83319697 -5 12 C-4.34 12 -3.68 12 -3 12 C-3 10.68 -3 9.36 -3 8 C-2.34 8 -1.68 8 -1 8 C-0.67 5.36 -0.34 2.72 0 0 Z " fill="#699C88" transform="translate(167,85)"/>
<path d="M0 0 C0.66 0 1.32 0 2 0 C2.33 1.65 2.66 3.3 3 5 C3.66 5 4.32 5 5 5 C5.33 6.98 5.66 8.96 6 11 C6.66 11 7.32 11 8 11 C8 12.65 8 14.3 8 16 C5.70351643 13.10414095 3.95652443 10.1827969 2.3125 6.875 C1.65701172 5.57175781 1.65701172 5.57175781 0.98828125 4.2421875 C0 2 0 2 0 0 Z " fill="#498A72" transform="translate(270,272)"/>
<path d="M0 0 C1.37489607 2.74979214 0.65650198 4.01990939 -0.1875 6.9375 C-0.54908203 8.25041016 -0.54908203 8.25041016 -0.91796875 9.58984375 C-2.16350962 12.36420735 -3.45460189 13.40319746 -6 15 C-5.39644592 11.14974121 -4.23227397 8.13898841 -2.4375 4.6875 C-1.98246094 3.80449219 -1.52742187 2.92148437 -1.05859375 2.01171875 C-0.53458984 1.01591797 -0.53458984 1.01591797 0 0 Z " fill="#D7E6DF" transform="translate(146,264)"/>
<path d="M0 0 C0.99 0.33 1.98 0.66 3 1 C4.42610133 4.42264319 4.09901205 8.09879533 4.0625 11.75 C4.05347656 12.92046875 4.04445313 14.0909375 4.03515625 15.296875 C4.02355469 16.18890625 4.01195312 17.0809375 4 18 C3.67 18 3.34 18 3 18 C2.01 12.06 1.02 6.12 0 0 Z " fill="#5B927C" transform="translate(340,134)"/>
<path d="M0 0 C0 3.48961209 -0.90379374 5.11480295 -2.5 8.1875 C-2.9640625 9.08855469 -3.428125 9.98960937 -3.90625 10.91796875 C-4.2671875 11.60503906 -4.628125 12.29210937 -5 13 C-6.35082763 8.9475171 -5.61407836 5.91266117 -4 2 C-1.875 0.5 -1.875 0.5 0 0 Z " fill="#57947C" transform="translate(167,221)"/>
<path d="M0 0 C0.33 0 0.66 0 1 0 C0.67 2.97 0.34 5.94 0 9 C-0.99 9.33 -1.98 9.66 -3 10 C-3 10.66 -3 11.32 -3 12 C-3.66 12 -4.32 12 -5 12 C-3.68938409 7.76570244 -2.05643741 3.92592596 0 0 Z " fill="#669E86" transform="translate(150,170)"/>
<path d="M0 0 C0.33 1.32 0.66 2.64 1 4 C0.34 4 -0.32 4 -1 4 C-1.103125 5.051875 -1.20625 6.10375 -1.3125 7.1875 C-1.97949332 10.88628113 -2.74990008 13.02986811 -5 16 C-5.66 16 -6.32 16 -7 16 C-7 15.34 -7 14.68 -7 14 C-6.34 14 -5.68 14 -5 14 C-4.9175 13.175 -4.835 12.35 -4.75 11.5 C-3.83552731 7.23246079 -2.07776822 3.80763106 0 0 Z " fill="#E0EFE8" transform="translate(129,168)"/>
<path d="M0 0 C0.66 0 1.32 0 2 0 C0.88059018 4.85077588 -0.1334716 7.777893 -4 11 C-3.71758359 9.53984709 -3.42373386 8.08190207 -3.125 6.625 C-2.96257812 5.81289063 -2.80015625 5.00078125 -2.6328125 4.1640625 C-2 2 -2 2 0 0 Z " fill="#4E8D74" transform="translate(127,297)"/>
<path d="M0 0 C0.66 0 1.32 0 2 0 C2.8466034 1.38782485 3.67675339 2.78569397 4.5 4.1875 C4.9640625 4.96480469 5.428125 5.74210937 5.90625 6.54296875 C7.10729647 9.24103386 7.20741043 11.0806982 7 14 C4.60926851 11.06810006 3.15892693 8.27856712 1.8125 4.75 C1.46832031 3.85796875 1.12414062 2.9659375 0.76953125 2.046875 C0.51558594 1.37140625 0.26164062 0.6959375 0 0 Z " fill="#468970" transform="translate(279,290)"/>
<path d="M0 0 C0.99 0 1.98 0 3 0 C1.88059018 4.85077588 0.8665284 7.777893 -3 11 C-2.25 3.375 -2.25 3.375 0 0 Z " fill="#56917B" transform="translate(66,288)"/>
<path d="M0 0 C0.99 0.33 1.98 0.66 3 1 C3.70491267 3.32206525 4.37212429 5.65593068 5 8 C5.66 8.33 6.32 8.66 7 9 C7.40729228 11.32156597 7.74438677 13.6568787 8 16 C5.11498852 14.55749426 4.73112185 12.60297612 3.4375 9.6875 C3.00308594 8.72199219 2.56867188 7.75648438 2.12109375 6.76171875 C1.20083839 4.49474823 0.50440778 2.38601882 0 0 Z " fill="#B9D3C9" transform="translate(242,263)"/>
<path d="M0 0 C1.242956 3.59076177 1.0087026 6.35315214 0 10 C-1.9375 11.6875 -1.9375 11.6875 -4 13 C-4.66 13.99 -5.32 14.98 -6 16 C-5.42724319 11.99070234 -4.09160006 9.43022411 -2 6 C-1.28856912 4.01548229 -0.61008664 2.01797888 0 0 Z " fill="#C2DCD1" transform="translate(117,190)"/>
<path d="M0 0 C0.66 0 1.32 0 2 0 C0.68315519 4.60895683 -1.15198745 8.14140235 -4 12 C-4.33 12 -4.66 12 -5 12 C-5 10.35 -5 8.7 -5 7 C-4.34 7 -3.68 7 -3 7 C-3 5.68 -3 4.36 -3 3 C-2.34 3 -1.68 3 -1 3 C-0.67 2.01 -0.34 1.02 0 0 Z " fill="#CEE3DC" transform="translate(143,182)"/>
<path d="M0 0 C1.305239 3.91571701 0.32239848 5.03892997 -1.4375 8.6875 C-1.91058594 9.68136719 -2.38367188 10.67523438 -2.87109375 11.69921875 C-3.42990234 12.83810547 -3.42990234 12.83810547 -4 14 C-4.33 14 -4.66 14 -5 14 C-4.67 11.36 -4.34 8.72 -4 6 C-3.34 6 -2.68 6 -2 6 C-1.855625 5.195625 -1.71125 4.39125 -1.5625 3.5625 C-1 1 -1 1 0 0 Z " fill="#4A896F" transform="translate(161,99)"/>
<path d="M0 0 C1.0169313 2.65498232 1.13022151 3.69155375 0.00390625 6.359375 C-0.47175781 7.14828125 -0.94742188 7.9371875 -1.4375 8.75 C-1.91058594 9.54921875 -2.38367188 10.3484375 -2.87109375 11.171875 C-3.24363281 11.77515625 -3.61617188 12.3784375 -4 13 C-4.66 13 -5.32 13 -6 13 C-4.25 7.25 -4.25 7.25 -2 5 C-1.29289322 3.35008418 -0.62056011 1.68437744 0 0 Z " fill="#CFE6DC" transform="translate(68,290)"/>
<path d="M0 0 C2.15377564 2.62198774 3.40072174 4.64404172 4 8 C3.34 8 2.68 8 2 8 C1.34 7.34 0.68 6.68 0 6 C-1.98 6.99 -1.98 6.99 -4 8 C-4 7.34 -4 6.68 -4 6 C-3.34 6 -2.68 6 -2 6 C-1.34 4.02 -0.68 2.04 0 0 Z " fill="#C0DACF" transform="translate(173,80)"/>
<path d="M0 0 C0.33 0.66 0.66 1.32 1 2 C-0.14453125 4.56640625 -0.14453125 4.56640625 -1.8125 7.5625 C-2.35519531 8.55378906 -2.89789063 9.54507812 -3.45703125 10.56640625 C-5 13 -5 13 -7 14 C-5.41944248 8.89358339 -3.8407594 3.8407594 0 0 Z " fill="#B8D4CA" transform="translate(95,280)"/>
<path d="M0 0 C0.66 0 1.32 0 2 0 C1.46515599 5.34844008 -0.46690767 9.35796103 -3 14 C-4.37095624 10.30962722 -3.60010967 8.29116165 -2.0625 4.75 C-1.68222656 3.85796875 -1.30195312 2.9659375 -0.91015625 2.046875 C-0.60980469 1.37140625 -0.30945313 0.6959375 0 0 Z " fill="#48866E" transform="translate(76,267)"/>
<path d="M0 0 C-0.92493788 3.78383679 -1.39371171 5.56693694 -4.625 7.875 C-5.40875 8.24625 -6.1925 8.6175 -7 9 C-6.53149863 4.78348764 -4.94559315 0 0 0 Z " fill="#539279" transform="translate(310,192)"/>
<path d="M0 0 C2.98479194 4.47718792 4 8.63824093 4 14 C3.01 13.67 2.02 13.34 1 13 C0.67 8.71 0.34 4.42 0 0 Z " fill="#D1E2DA" transform="translate(338,130)"/>
<path d="M0 0 C0.95465783 2.16967689 1.14401212 3.56328793 0.3984375 5.82421875 C-0.35870385 7.5684743 -1.17609198 9.28627131 -2 11 C-2.66 11 -3.32 11 -4 11 C-2.25 3.375 -2.25 3.375 0 0 Z " fill="#DCEFE6" transform="translate(86,254)"/>
<path d="M0 0 C0.66 0.33 1.32 0.66 2 1 C1.67 3.31 1.34 5.62 1 8 C0.01 8.33 -0.98 8.66 -2 9 C-2 10.65 -2 12.3 -2 14 C-2.66 14 -3.32 14 -4 14 C-3.34 11.03 -2.68 8.06 -2 5 C-1.34 5 -0.68 5 0 5 C0 3.35 0 1.7 0 0 Z " fill="#CEE2DA" transform="translate(321,168)"/>
<path d="M0 0 C1.1484375 1.734375 1.1484375 1.734375 2 4 C1.1015625 6.140625 1.1015625 6.140625 -0.375 8.25 C-0.85710938 8.95640625 -1.33921875 9.6628125 -1.8359375 10.390625 C-2.22007813 10.92171875 -2.60421875 11.4528125 -3 12 C-4 10 -4 10 -3.22265625 7.6171875 C-2.83980469 6.71226562 -2.45695312 5.80734375 -2.0625 4.875 C-1.68222656 3.96492188 -1.30195312 3.05484375 -0.91015625 2.1171875 C-0.60980469 1.41851562 -0.30945312 0.71984375 0 0 Z " fill="#46876E" transform="translate(61,297)"/>
<path d="M0 0 C0.33 0 0.66 0 1 0 C0.609375 6.0546875 0.609375 6.0546875 0 8 C-2.046875 9.2578125 -2.046875 9.2578125 -4 10 C-3.52449439 8.51965236 -3.04448784 7.04074979 -2.5625 5.5625 C-2.29566406 4.73878906 -2.02882812 3.91507812 -1.75390625 3.06640625 C-1 1 -1 1 0 0 Z " fill="#DEECE6" transform="translate(157,112)"/>
<path d="M0 0 C0.33 0 0.66 0 1 0 C1 3.3 1 6.6 1 10 C0.34 10 -0.32 10 -1 10 C-1 9.34 -1 8.68 -1 8 C-1.66 8 -2.32 8 -3 8 C-1.125 2.25 -1.125 2.25 0 0 Z " fill="#CFDFD8" transform="translate(190,304)"/>
<path d="M0 0 C3.48331435 3.01887244 4.79157144 5.56909529 6 10 C5.01 9.67 4.02 9.34 3 9 C2.67 8.01 2.34 7.02 2 6 C1.34 5.67 0.68 5.34 0 5 C0 3.35 0 1.7 0 0 Z " fill="#58907B" transform="translate(248,278)"/>
<path d="M0 0 C2.67901932 2.31881505 3.66204403 4.31814468 4.6875 7.6875 C4.93886719 8.49574219 5.19023437 9.30398438 5.44921875 10.13671875 C5.63097656 10.75160156 5.81273437 11.36648438 6 12 C5.01 11.67 4.02 11.34 3 11 C2.29508733 8.67793475 1.62787571 6.34406932 1 4 C0.34 3.67 -0.32 3.34 -1 3 C-0.67 2.01 -0.34 1.02 0 0 Z " fill="#4C8B73" transform="translate(242,265)"/>
<path d="M0 0 C0.99 0 1.98 0 3 0 C1.90931332 3.77545388 1.0916909 6.47043472 -2 9 C-3 6 -3 6 -1.5625 2.8125 C-1.046875 1.884375 -0.53125 0.95625 0 0 Z " fill="#508F76" transform="translate(146,258)"/>
<path d="M0 0 C-1.4096347 0.70180531 -2.82807641 1.38593958 -4.25 2.0625 C-5.03890625 2.44535156 -5.8278125 2.82820312 -6.640625 3.22265625 C-9.25993522 4.08564091 -10.44855176 3.93045933 -13 3 C-3.44262295 -1.14754098 -3.44262295 -1.14754098 0 0 Z " fill="#DCE6E2" transform="translate(297,231)"/>
<path d="M0 0 C0.66 0 1.32 0 2 0 C1.69381595 3.67420866 1.24228216 4.78135513 -1.5625 7.3125 C-2.366875 7.869375 -3.17125 8.42625 -4 9 C-4.66 8.67 -5.32 8.34 -6 8 C-5.04956626 6.66102417 -4.08940853 5.32894573 -3.125 4 C-2.59132813 3.2575 -2.05765625 2.515 -1.5078125 1.75 C-1.01023437 1.1725 -0.51265625 0.595 0 0 Z " fill="#7FA797" transform="translate(326,206)"/>
<path d="M0 0 C-0.66 1.32 -1.32 2.64 -2 4 C-3.32 4 -4.64 4 -6 4 C-6 4.66 -6 5.32 -6 6 C-7.32 5.67 -8.64 5.34 -10 5 C-9.34 5 -8.68 5 -8 5 C-8 4.34 -8 3.68 -8 3 C-2.25 0 -2.25 0 0 0 Z " fill="#C8E1D8" transform="translate(296,208)"/>
<path d="M0 0 C0.33 0 0.66 0 1 0 C1.8125 2.6875 1.8125 2.6875 2 6 C-0.4375 8.875 -0.4375 8.875 -3 11 C-3 8.04725901 -2.56108169 6.50941597 -1.5 3.8125 C-1.2215625 3.09707031 -0.943125 2.38164062 -0.65625 1.64453125 C-0.33140625 0.83048828 -0.33140625 0.83048828 0 0 Z " fill="#54937C" transform="translate(159,152)"/>
<path d="M0 0 C0.33 0 0.66 0 1 0 C1.4025937 3.52269485 1.13372795 4.79940808 -0.875 7.8125 C-1.57625 8.534375 -2.2775 9.25625 -3 10 C-3.66 10 -4.32 10 -5 10 C-4.34 8.02 -3.68 6.04 -3 4 C-2.34 4 -1.68 4 -1 4 C-0.67 2.68 -0.34 1.36 0 0 Z " fill="#41886C" transform="translate(100,274)"/>
<path d="M0 0 C2.53833449 1.26916725 2.89400901 2.41624809 4.125 4.9375 C4.47820312 5.64777344 4.83140625 6.35804688 5.1953125 7.08984375 C6 9 6 9 6 11 C5.34 11 4.68 11 4 11 C0.72962401 7.72962401 0.43143987 4.4869746 0 0 Z " fill="#699E89" transform="translate(176,132)"/>
<path d="M0 0 C2 1 2 1 2.8515625 3.06640625 C3.10679687 3.89011719 3.36203125 4.71382813 3.625 5.5625 C3.88539063 6.38878906 4.14578125 7.21507813 4.4140625 8.06640625 C4.60742188 8.70449219 4.80078125 9.34257813 5 10 C4.34 10 3.68 10 3 10 C0.52653696 7.52653696 0.01686856 6.29238832 -0.1875 2.75 C-0.125625 1.8425 -0.06375 0.935 0 0 Z " fill="#C4DAD1" transform="translate(177,88)"/>
<path d="M0 0 C-5.00932754 3.00559652 -8.32723489 3.29341888 -14 3 C-11.87033995 0.87033995 -10.95931796 0.52375338 -8.125 -0.1875 C-7.44695312 -0.36667969 -6.76890625 -0.54585937 -6.0703125 -0.73046875 C-3.77181444 -1.02970718 -2.19449036 -0.69377386 0 0 Z " fill="#CBDBD4" transform="translate(286,215)"/>
<path d="M0 0 C0.33 0 0.66 0 1 0 C1 2.31 1 4.62 1 7 C-0.98 7.99 -0.98 7.99 -3 9 C-2.01 6.03 -1.02 3.06 0 0 Z " fill="#498D73" transform="translate(338,188)"/>
<path d="M0 0 C1.24546405 2.49092811 0.7767578 3.41080733 0 6 C-0.66 6 -1.32 6 -2 6 C-2 7.32 -2 8.64 -2 10 C-2.99 10.33 -3.98 10.66 -5 11 C-3.92289822 6.69159287 -2.96052484 3.36423277 0 0 Z " fill="#72A38F" transform="translate(165,141)"/>
<path d="M0 0 C1.9375 0.75 1.9375 0.75 4 2 C4.75 4.125 4.75 4.125 5 6 C3.02 6 1.04 6 -1 6 C-0.67 4.02 -0.34 2.04 0 0 Z " fill="#3C9474" transform="translate(2,49)"/>
<path d="M0 0 C0.625 1.8125 0.625 1.8125 1 4 C0.01 5.485 0.01 5.485 -1 7 C-1.66 7 -2.32 7 -3 7 C-3.33 8.32 -3.66 9.64 -4 11 C-4.33 10.34 -4.66 9.68 -5 9 C-4.00390625 6.8359375 -4.00390625 6.8359375 -2.5625 4.375 C-2.08941406 3.55773437 -1.61632812 2.74046875 -1.12890625 1.8984375 C-0.75636719 1.27195313 -0.38382813 0.64546875 0 0 Z " fill="#79AA98" transform="translate(141,189)"/>
<path d="M0 0 C2.83374881 3.20336822 3.5205537 5.78087253 4 10 C3.01 9.67 2.02 9.34 1 9 C0.67 6.03 0.34 3.06 0 0 Z " fill="#C7E0D7" transform="translate(220,174)"/>
<path d="M0 0 C0.33 0 0.66 0 1 0 C0.14285714 8.57142857 0.14285714 8.57142857 -2 12 C-3.01911045 8.10885099 -3.16782969 6.39403493 -1.5625 2.625 C-1.046875 1.75875 -0.53125 0.8925 0 0 Z " fill="#42876B" transform="translate(319,168)"/>
<path d="M0 0 C4.23830976 2.82553984 3.97715348 5.12180888 5 10 C3.0625 9.5 3.0625 9.5 1 8 C0.31209578 5.30341548 0.18053536 2.7982981 0 0 Z " fill="#6DA08B" transform="translate(188,156)"/>
<path d="M0 0 C0.33 0 0.66 0 1 0 C0.67 2.31 0.34 4.62 0 7 C-0.99 7.33 -1.98 7.66 -3 8 C-2.25 2.25 -2.25 2.25 0 0 Z " fill="#C9DFD6" transform="translate(144,138)"/>
<path d="M0 0 C2.15377564 2.62198774 3.40072174 4.64404172 4 8 C2.68 7.67 1.36 7.34 0 7 C0 4.69 0 2.38 0 0 Z " fill="#C5DCD3" transform="translate(285,304)"/>
<path d="M0 0 C0.99 0 1.98 0 3 0 C1.7508258 3.45925163 0.32472205 6.14693203 -2 9 C-2 7.35 -2 5.7 -2 4 C-1.34 4 -0.68 4 0 4 C0 2.68 0 1.36 0 0 Z " fill="#508A73" transform="translate(191,297)"/>
<path d="M0 0 C0.66 0 1.32 0 2 0 C1.67 1.65 1.34 3.3 1 5 C0.34 5 -0.32 5 -1 5 C-1 5.66 -1 6.32 -1 7 C-1.66 7 -2.32 7 -3 7 C-1.125 1.125 -1.125 1.125 0 0 Z " fill="#D8E8E1" transform="translate(154,289)"/>
<path d="M0 0 C-1.19899698 3.0831351 -2.47700477 6.06279492 -4 9 C-5.10102197 5.69693408 -4.95067299 4.28414305 -4 1 C-2 0 -2 0 0 0 Z " fill="#CAE1D9" transform="translate(161,280)"/>
<path d="M0 0 C0.99 0 1.98 0 3 0 C2.43628586 3.26954202 1.50037734 4.82575883 -1 7 C-1.04254356 5.00045254 -1.04080783 2.99958364 -1 1 C-0.67 0.67 -0.34 0.34 0 0 Z " fill="#58937B" transform="translate(141,268)"/>
<path d="M0 0 C0.66 0 1.32 0 2 0 C2 0.66 2 1.32 2 2 C2.66 2 3.32 2 4 2 C4.33 2.99 4.66 3.98 5 5 C4.01 6.485 4.01 6.485 3 8 C3 7.34 3 6.68 3 6 C2.34 6 1.68 6 1 6 C0.67 4.02 0.34 2.04 0 0 Z " fill="#509078" transform="translate(264,260)"/>
<path d="M0 0 C0.66 0.99 1.32 1.98 2 3 C-1.75 8.875 -1.75 8.875 -4 10 C-2.99806563 6.20696275 -2.18975773 3.28463659 0 0 Z " fill="#DDECE6" transform="translate(110,206)"/>
<path d="M0 0 C0.99928333 2.698065 1.03624754 3.88010429 0.1875 6.6875 C-1 9 -1 9 -3 10 C-2.49287967 6.28111761 -1.88391785 3.26545761 0 0 Z " fill="#43886E" transform="translate(145,182)"/>
<path d="M0 0 C0.99 0 1.98 0 3 0 C2.01 3.3 1.02 6.6 0 10 C-0.66 10 -1.32 10 -2 10 C-1.34 6.7 -0.68 3.4 0 0 Z " fill="#7CA795" transform="translate(124,172)"/>
<path d="M0 0 C0.66 0 1.32 0 2 0 C1.46930939 3.82097239 0.50298434 6.06171403 -2 9 C-2 7.02 -2 5.04 -2 3 C-1.34 3 -0.68 3 0 3 C0 2.01 0 1.02 0 0 Z " fill="#C4DAD1" transform="translate(178,241)"/>
<path d="M0 0 C0.33 0 0.66 0 1 0 C1.3125 2.3125 1.3125 2.3125 1 5 C-1.5 6.8125 -1.5 6.8125 -4 8 C-3.67 6.68 -3.34 5.36 -3 4 C-2.34 4 -1.68 4 -1 4 C-0.67 2.68 -0.34 1.36 0 0 Z " fill="#3D876A" transform="translate(160,230)"/>
<path d="M0 0 C0.66 0 1.32 0 2 0 C1.39009109 3.55780196 0.4216319 6.6828589 -1 10 C-2.31223496 6.06329512 -1.24296256 3.87511856 0 0 Z " fill="#D2E3DB" transform="translate(116,233)"/>
<path d="M0 0 C0.66 0 1.32 0 2 0 C1.35455571 3.48539917 -0.10134397 6.02819057 -2 9 C-2.6875 7.3125 -2.6875 7.3125 -3 5 C-1.6875 2.25 -1.6875 2.25 0 0 Z " fill="#DDE9E6" transform="translate(335,189)"/>
<path d="M0 0 C2.79872437 2.52788007 4.45773019 4.20411134 5 8 C4.34 8 3.68 8 3 8 C0.25624329 5.04518508 0 4.22528092 0 0 Z " fill="#659985" transform="translate(313,130)"/>
<path d="M0 0 C0.66 0 1.32 0 2 0 C1.01 2.97 0.02 5.94 -1 9 C-1.33 9 -1.66 9 -2 9 C-2.25 3.375 -2.25 3.375 0 0 Z " fill="#609380" transform="translate(154,113)"/>
<path d="M0 0 C0.33 0.99 0.66 1.98 1 3 C0.01 3.33 -0.98 3.66 -2 4 C-2 4.66 -2 5.32 -2 6 C-3.65 6.66 -5.3 7.32 -7 8 C-6.02133662 6.85373678 -5.04205413 5.70800212 -4.0625 4.5625 C-3.51722656 3.92441406 -2.97195312 3.28632813 -2.41015625 2.62890625 C-1.63204305 1.73008851 -0.84063472 0.84063472 0 0 Z " fill="#459276" transform="translate(23,16)"/>
<path d="M0 0 C0.33 0 0.66 0 1 0 C1.25 5.625 1.25 5.625 -1 9 C-1.66 9 -2.32 9 -3 9 C-2.01 6.03 -1.02 3.06 0 0 Z " fill="#D6E8E0" transform="translate(61,303)"/>
<path d="M0 0 C1.46726798 3.81489674 0.43336419 6.29011622 -1 10 C-2.1875 8.375 -2.1875 8.375 -3 6 C-1.625 2.75 -1.625 2.75 0 0 Z " fill="#498C73" transform="translate(152,298)"/>
<path d="M0 0 C0.66 0.99 1.32 1.98 2 3 C1.01 3.33 0.02 3.66 -1 4 C-1.33 5.98 -1.66 7.96 -2 10 C-2.66 10 -3.32 10 -4 10 C-2.99806563 6.20696275 -2.18975773 3.28463659 0 0 Z " fill="#B6D0C6" transform="translate(155,245)"/>
<path d="M0 0 C0.33 0 0.66 0 1 0 C0.67 2.31 0.34 4.62 0 7 C-0.99 7.33 -1.98 7.66 -3 8 C-1.125 1.125 -1.125 1.125 0 0 Z " fill="#4D8C75" transform="translate(181,240)"/>
<path d="M0 0 C2.97 0.33 5.94 0.66 9 1 C9 1.33 9 1.66 9 2 C4.545 2.495 4.545 2.495 0 3 C0 2.01 0 1.02 0 0 Z " fill="#DDE8E4" transform="translate(275,234)"/>
<path d="M0 0 C1.9375 0.5625 1.9375 0.5625 4 2 C4.75 5.625 4.75 5.625 5 9 C2.67527795 6.14693203 1.2491742 3.45925163 0 0 Z " fill="#4F8B74" transform="translate(208,149)"/>
<path d="M0 0 C0.66 0 1.32 0 2 0 C2.33 0.99 2.66 1.98 3 3 C1.71034824 4.37562854 0.37310707 5.70766393 -1 7 C-1.66 7 -2.32 7 -3 7 C-2.67 6.01 -2.34 5.02 -2 4 C-1.34 4 -0.68 4 0 4 C0 2.68 0 1.36 0 0 Z " fill="#3C8A6B" transform="translate(163,147)"/>
<path d="M0 0 C2.31 0.33 4.62 0.66 7 1 C7 1.99 7 2.98 7 4 C4.97954558 3.39816251 2.97888961 2.72693904 1 2 C0.67 1.34 0.34 0.68 0 0 Z " fill="#DAE7E1" transform="translate(281,101)"/>
<path d="M0 0 C2.31 0 4.62 0 7 0 C7 0.66 7 1.32 7 2 C7.66 2.33 8.32 2.66 9 3 C2.84765625 2.4140625 2.84765625 2.4140625 1 2 C0.67 1.34 0.34 0.68 0 0 Z " fill="#639684" transform="translate(281,80)"/>
</svg>
